<svg xmlns="http://www.w3.org/2000/svg" viewBox="0 0 178.74 195.51"><defs><style>.cls-1{fill:none;stroke:#000;stroke-linecap:round;stroke-linejoin:round;}</style></defs><g id="レイヤー_2" data-name="レイヤー 2"><g id="decoration_simple_001_01"><path class="cls-1" d="M178.24,43.73c0-19.89-17-30.14-36-36-31-9.58-75.12-9.65-105.71,0-19,6-36,16.13-36,36"/><path class="cls-1" d="M.5,135.39c0,19.89,21.48,31,36,36,9.84,3.42,25.26,5,35.51,5.7a18.59,18.59,0,0,1,15.41,10.24c2,4,3.83,7.66,3.83,7.66l4-8a18.62,18.62,0,0,1,14.85-10.19c9.64-1,23.85-2.7,32.09-5.36,14.1-4.56,36-16.13,36-36"/></g></g></svg>